# xmcd CD database file
#
# Track frame offsets:
#	150
#	16205
#	37197
#	50460
#	65362
#	79775
#	90515
#	106325
#	130382
#	145332
#	160947
#	190530
#	220992
#	232850
#
# Disc length: 3354 seconds
#
# Revision: 0
# Processed by: cddbd v1.5.1PL0 Copyright (c) Steve Scherf et al.
# Submitted via: CDex 1.51
#
DISCID=b70d180e
DTITLE=The Hash Brown Band - Rollin' Blues
DYEAR=1995
DGENRE=Blues
TTITLE0=The Nod
TTITLE1=Cool Breeze
TTITLE2=Hangin' With Terry
TTITLE3=Give it to me
TTITLE4=Too hard to find
TTITLE5=Greasy pork Pete
TTITLE6=Sleepyhead
TTITLE7=Hole in my pocket
TTITLE8=You're the one for me
TTITLE9=On the prowl
TTITLE10=Cruel world
TTITLE11=Texas women
TTITLE12=Mr. Natural
TTITLE13=Back home to me
EXTD=YEAR: 1995
EXTT0=
EXTT1=
EXTT2=
EXTT3=
EXTT4=
EXTT5=
EXTT6=
EXTT7=
EXTT8=
EXTT9=
EXTT10=
EXTT11=
EXTT12=
EXTT13=
PLAYORDER=
